<svg width="58" height="57" viewBox="0 0 58 57" fill="none" xmlns="http://www.w3.org/2000/svg">
<g clip-path="url(#clip0_0_655)">
<path d="M52.3135 2.89893H10.8237L9.23935 3.92371L8.27148 5.80242V22.5853L9.1254 24.2479L11.3168 25.4878H37.0983L37.7994 25.0007H41.5947L41.8987 25.4878H52.3134C54.5059 25.4878 56.2997 23.694 56.2997 21.5015V6.88524C56.2997 4.69275 54.5059 2.89893 52.3135 2.89893Z" fill="#D75EC7"/>
<path d="M8.86176 21.5015V6.88524C8.86176 4.69275 10.6557 2.89893 12.8481 2.89893H6.13035C3.93787 2.89893 2.14404 4.69275 2.14404 6.88524V21.5016C2.14404 23.6941 3.93787 25.4879 6.13035 25.4879H12.8482C10.6557 25.4878 8.86176 23.694 8.86176 21.5015Z" fill="#CB4ABA"/>
<path d="M53.9741 33.559C53.8931 33.5566 53.8132 33.5583 53.734 33.5637L52.0231 35.6298L51.7893 34.8155C51.6051 35.1553 51.5 35.5443 51.5 35.958V35.4636C51.5 34.1492 50.4872 33.0029 49.1735 32.9637C49.1073 32.9617 49.0419 32.9633 48.9769 32.9665L48.3796 34.0631L47.3264 35.0335L46.9839 34.2302C46.8029 34.5676 46.6998 34.953 46.6998 35.3628L46.6997 34.8683C46.6995 33.5539 45.6867 32.4075 44.3729 32.3684C44.3068 32.3664 44.2414 32.3679 44.1765 32.3712L43.7113 32.9664L42.6296 34.4615L42.3413 33.3802C42.0632 33.772 41.8992 34.2505 41.8992 34.7677V22.4339C41.8992 21.6054 41.4966 20.8441 40.87 20.3843H40.2099L39.5837 21.4531V38.3841L37.0988 38.2259C37.0988 39.0849 36.0939 39.5498 35.4409 38.9917C34.3063 38.022 32.7055 36.8399 31.0144 36.1742L30.2661 36.5869V38.2949L38.4641 47.973L40.87 53.2486L44.1764 56.1331L46.7326 56.8314C49.2477 56.7965 51.6522 55.7847 53.4346 54.0023C55.0376 52.3993 56.029 50.2829 56.2297 48.0248C56.2766 47.4988 56.3003 47.0124 56.3003 46.617V36.0588C56.3003 34.7446 55.2877 33.5986 53.9741 33.559Z" fill="#FFCEBE"/>
<path d="M37.0967 38.2649C37.4957 38.6979 37.8688 39.0954 38.2139 39.3902C38.8669 39.9484 39.8717 39.4834 39.8717 38.6244V22.3329C39.8717 21.5304 40.2658 20.8198 40.8708 20.384C40.5033 20.1144 40.0591 19.9483 39.5733 19.9337C38.2142 19.893 37.0994 20.9828 37.0994 22.3328V38.2257C37.0996 38.2393 37.0972 38.2517 37.0967 38.2649Z" fill="#FFB1A0"/>
<path d="M40.2556 50.3753C39.8315 49.1641 39.3129 48.0463 38.7011 47.3562C35.945 44.2465 32.6851 40.3939 31.1822 38.6077C30.609 37.9266 30.5318 36.9488 31.0143 36.1741C30.8574 36.1123 30.7 36.0533 30.5417 36.0011C29.6703 35.7132 28.679 35.9667 28.1371 36.7072C27.5567 37.5002 27.6087 38.5538 28.2154 39.2748C29.7183 41.061 32.9781 44.9137 35.7343 48.0233C36.3461 48.7134 36.8645 49.8313 37.2887 51.0424C38.4984 54.4974 41.734 56.8299 45.3948 56.8298C45.8069 56.8298 46.1831 56.8325 46.5304 56.8349C46.8883 56.8375 47.2438 56.8181 47.5963 56.7815C44.2698 56.3799 41.3749 53.5723 40.2556 50.3753Z" fill="#FFB1A0"/>
<path d="M43.0378 37.6956C43.6667 37.6956 44.1764 37.1859 44.1764 36.557V32.3711C42.9082 32.4352 41.8992 33.4832 41.8992 34.7675V36.557C41.8992 37.1858 42.409 37.6956 43.0378 37.6956Z" fill="#FFB1A0"/>
<path d="M47.8385 37.6957C48.4674 37.6957 48.9771 37.1859 48.9771 36.5571V32.9663C47.7088 33.0305 46.6998 34.0784 46.7 35.3627V35.1979V36.5571C46.6998 37.1858 47.2096 37.6957 47.8385 37.6957Z" fill="#FFB1A0"/>
<path d="M53.7765 36.5569V33.8728C53.7765 33.7655 53.7611 33.662 53.7333 33.5635C52.4855 33.6488 51.4996 34.6877 51.4993 35.9571V36.5569C51.4993 37.1858 52.009 37.6956 52.6379 37.6956C53.2668 37.6956 53.7765 37.1857 53.7765 36.5569Z" fill="#FFB1A0"/>
<path d="M44.9759 9.62117C44.5043 9.62117 44.122 10.0035 44.122 10.4751V15.0518L40.8129 10.0068C40.6058 9.69102 40.2161 9.54889 39.8544 9.65687C39.4927 9.76496 39.2449 10.0976 39.2449 10.4751V17.9109C39.2449 18.3826 39.6272 18.7648 40.0988 18.7648C40.5704 18.7648 40.9527 18.3825 40.9527 17.9109V13.3342L44.2617 18.3793C44.4225 18.6244 44.6934 18.765 44.9758 18.765C45.0571 18.765 45.1393 18.7533 45.2202 18.7292C45.5819 18.6211 45.8297 18.2884 45.8297 17.911V10.4752C45.8298 10.0035 45.4475 9.62117 44.9759 9.62117Z" fill="white"/>
<path d="M37.0092 9.62109C36.5376 9.62109 36.1553 10.0034 36.1553 10.475V17.9108C36.1553 18.3825 36.5376 18.7647 37.0092 18.7647C37.4808 18.7647 37.8631 18.3824 37.8631 17.9108V10.4751C37.8631 10.0034 37.4808 9.62109 37.0092 9.62109Z" fill="white"/>
<path d="M52.004 13.9395H50.7102C50.2386 13.9395 49.8563 14.3218 49.8563 14.7934C49.8563 15.2651 50.2386 15.6473 50.7102 15.6473H51.1501V15.7951C51.1501 16.4911 50.5838 17.0573 49.8879 17.0573C49.1919 17.0573 48.6257 16.4911 48.6257 15.7951V12.5917C48.6257 11.8956 49.1919 11.3294 49.8879 11.3294C50.457 11.3294 50.958 11.7123 51.1064 12.2605C51.2296 12.7157 51.6983 12.9848 52.1539 12.8616C52.6091 12.7384 52.8782 12.2694 52.755 11.8142C52.4055 10.5232 51.2265 9.62158 49.8879 9.62158C48.2501 9.62158 46.9177 10.954 46.9177 12.5917V15.7952C46.9177 17.4329 48.2501 18.7652 49.8879 18.7652C51.5256 18.7652 52.858 17.4329 52.858 15.7952V14.7935C52.8579 14.3217 52.4756 13.9395 52.004 13.9395Z" fill="white"/>
<path d="M34.6978 9.86736C34.3621 9.53579 33.8213 9.53955 33.4901 9.87554L30.8564 12.5454V10.4753C30.8564 10.0035 30.4741 9.62133 30.0025 9.62133C29.5309 9.62133 29.1486 10.0036 29.1486 10.4753V13.1412C28.672 11.1259 26.8591 9.62133 24.7003 9.62133C22.6605 9.62133 20.9289 10.9643 20.3422 12.8123C19.7553 10.9643 18.0237 9.62133 15.9839 9.62133C13.4631 9.62133 11.4122 11.6722 11.4122 14.1932C11.4122 14.3356 11.4196 14.4762 11.4324 14.6153C11.2303 14.2461 10.9485 13.9267 10.6092 13.6816C10.8828 13.268 11.0422 12.7724 11.0422 12.2404C11.0422 10.7963 9.86737 9.62133 8.42313 9.62133H6.34537C5.87376 9.62133 5.49146 10.0036 5.49146 10.4753V17.9111C5.49146 18.3828 5.87376 18.765 6.34537 18.765H8.96968C10.5102 18.765 11.7643 17.5173 11.7758 15.9795C12.4728 17.6153 14.0965 18.765 15.9839 18.765C18.0237 18.765 19.7553 17.422 20.3422 15.574C20.9291 17.422 22.6605 18.765 24.7003 18.765C26.8591 18.765 28.672 17.2604 29.1486 15.2452V17.9111C29.1486 18.3828 29.5309 18.765 30.0025 18.765C30.4741 18.765 30.8564 18.3827 30.8564 17.9111V15.8411L33.4901 18.5109C33.6572 18.6802 33.8776 18.7651 34.0981 18.7651C34.3148 18.7651 34.5315 18.6832 34.6978 18.5191C35.0336 18.1879 35.0373 17.6472 34.706 17.3113L31.63 14.1933L34.706 11.0751C35.0373 10.7392 35.0335 10.1985 34.6978 9.86736ZM8.42302 11.3292C8.92547 11.3292 9.33419 11.7379 9.33419 12.2403C9.33419 12.7428 8.92536 13.1516 8.42302 13.1516H7.19929V11.3291L8.42302 11.3292ZM8.96968 17.057H7.19929V14.8597H8.42291H8.96968C9.57547 14.8597 10.0684 15.3526 10.0684 15.9584C10.0684 16.5641 9.57558 17.057 8.96968 17.057ZM15.9838 17.057C14.4046 17.057 13.12 15.7723 13.12 14.1932C13.12 12.6141 14.4048 11.3293 15.9838 11.3293C17.5629 11.3293 18.8478 12.6141 18.8478 14.1932C18.8478 15.7723 17.563 17.057 15.9838 17.057ZM24.7003 17.057C23.1211 17.057 21.8365 15.7723 21.8365 14.1932C21.8365 12.6141 23.1212 11.3293 24.7003 11.3293C26.2795 11.3293 27.5642 12.6141 27.5642 14.1932C27.5642 15.7723 26.2794 17.057 24.7003 17.057Z" fill="white"/>
</g>
<defs>
<clipPath id="clip0_0_655">
<rect width="56.5889" height="56.5889" fill="white" transform="translate(0.92749 0.246094)"/>
</clipPath>
</defs>
</svg>
