<svg width="58" height="57" viewBox="0 0 58 57" fill="none" xmlns="http://www.w3.org/2000/svg">
<g clip-path="url(#clip0_0_625)">
<path d="M15.6634 31.4673L6.88232 52.932L13.712 50.9806L16.639 56.8347L25.42 36.3456L15.6634 31.4673Z" fill="#447CDD"/>
<path d="M37.1275 30.4912L27.3708 36.3453L36.1519 56.8343L39.0789 50.9803L45.9086 52.9317L37.1275 30.4912Z" fill="#447CDD"/>
<path d="M15.6641 31.4673L12.4346 39.3604L12.6005 39.4092L14.6884 45.8876L21.3425 44.4632L21.7717 44.8534L25.4207 36.3456L15.6641 31.4673Z" fill="#1B4FA9"/>
<path d="M27.3728 36.3453L31.0218 44.8531L31.4511 44.4628L38.1051 45.8873L40.1931 39.4088L40.5736 39.2918L37.1294 30.4912L27.3728 36.3453Z" fill="#1B4FA9"/>
<path d="M26.3957 1.11475L31.3576 5.51143L37.8903 4.13047L39.9402 10.3779L46.3005 12.3883L44.9021 18.7954L49.3849 23.6619L44.9021 28.5283L46.3005 34.9354L39.9402 36.9459L37.8903 43.1839L31.3576 41.8123L26.3957 46.209L21.4339 41.8123L14.9011 43.1839L12.8512 36.9459L6.48135 34.9354L7.88938 28.5283L3.40649 23.6619L7.88938 18.7954L6.48135 12.3883L12.8512 10.3779L14.9011 4.13047L21.4339 5.51143L26.3957 1.11475Z" fill="#FDB62F"/>
<path d="M50.7869 8.05138C50.4552 6.04933 48.8863 4.48042 46.8843 4.14874C48.8863 3.81705 50.4552 2.24815 50.7869 0.246094C51.1186 2.24815 52.6875 3.81705 54.6896 4.14874C52.6875 4.48042 51.1186 6.04922 50.7869 8.05138Z" fill="#FDB62F"/>
<path d="M49.387 23.676L44.8963 18.8125L46.2972 12.4093L41.3363 10.8413C35.9532 25.3847 23.1623 33.6094 13.1348 37.9941L14.8428 43.1861L21.387 41.8153L26.3575 46.2094L31.3281 41.8153L37.8723 43.1861L39.9257 36.9519L46.2972 34.9427L44.8963 28.5394L49.387 23.676Z" fill="#FFA83D"/>
<path d="M20.5435 21.711C18.3883 21.711 16.6409 19.9636 16.6409 17.8084C16.6409 15.6532 18.3883 13.9058 20.5435 13.9058C22.6988 13.9058 24.4462 15.6532 24.4462 17.8084C24.4462 19.9636 22.6988 21.711 20.5435 21.711ZM20.5435 15.857C19.4654 15.857 18.5922 16.7302 18.5922 17.8083C18.5922 18.8864 19.4654 19.7596 20.5435 19.7596C21.6216 19.7596 22.4948 18.8864 22.4948 17.8083C22.4948 16.7302 21.6216 15.857 20.5435 15.857Z" fill="white"/>
<path d="M33.2281 34.3946C31.0728 34.3946 29.3254 32.6472 29.3254 30.492C29.3254 28.3368 31.0728 26.5894 33.2281 26.5894C35.3833 26.5894 37.1307 28.3368 37.1307 30.492C37.1307 32.6471 35.3833 34.3946 33.2281 34.3946ZM33.2281 28.5406C32.15 28.5406 31.2768 29.4138 31.2768 30.4919C31.2768 31.57 32.15 32.4432 33.2281 32.4432C34.3061 32.4432 35.1794 31.57 35.1794 30.4919C35.1794 29.4138 34.3063 28.5406 33.2281 28.5406Z" fill="white"/>
<path d="M20.254 31.1843L33.9138 17.5244L32.534 16.1446L18.8742 29.8045L20.254 31.1843Z" fill="white"/>
</g>
<defs>
<clipPath id="clip0_0_625">
<rect width="56.5889" height="56.5889" fill="white" transform="translate(0.541504 0.246094)"/>
</clipPath>
</defs>
</svg>
