<svg width="49" height="49" viewBox="0 0 49 49" fill="none" xmlns="http://www.w3.org/2000/svg">
<path fill-rule="evenodd" clip-rule="evenodd" d="M10.2766 0.746582H34.4836L40.8756 7.13863V41.4855H8.02173V3.00142C8.02173 1.76122 9.03637 0.746582 10.2766 0.746582Z" fill="#E3E2E2"/>
<path fill-rule="evenodd" clip-rule="evenodd" d="M10.2766 0.746582H34.4836L38.3273 7.13863V29.9373L35.2389 27.9777C34.3599 27.4199 33.1843 27.6828 32.6265 28.5619C32.0687 29.4411 32.3315 30.6167 33.2107 31.1745L37.8907 34.144C37.459 36.729 37.3729 39.1875 37.7259 41.4855H11.1714C11.5244 39.1875 11.4382 36.729 11.0066 34.144L15.6866 31.1745C16.5657 30.6167 16.8285 29.4411 16.2708 28.5619C15.7129 27.6828 14.5374 27.4199 13.6583 27.9777L8.02173 31.554V3.00142C8.02173 1.76122 9.03637 0.746582 10.2766 0.746582Z" fill="#F1F1F1"/>
<path fill-rule="evenodd" clip-rule="evenodd" d="M19.2016 5.66846C20.9488 5.66846 22.3652 7.08476 22.3652 8.832C22.3652 10.5792 20.9488 11.9955 19.2016 11.9955C17.4545 11.9955 16.0381 10.5792 16.0381 8.832C16.0381 7.08476 17.4545 5.66846 19.2016 5.66846Z" fill="#CF8C48"/>
<path fill-rule="evenodd" clip-rule="evenodd" d="M18.2523 11.8505C16.969 11.4472 16.0381 10.2485 16.0381 8.83193C16.0381 7.41551 16.969 6.21673 18.2523 5.81348C19.5356 6.21673 20.4665 7.41551 20.4665 8.83193C20.4665 10.2485 19.5356 11.4472 18.2523 11.8505Z" fill="#F0B16E"/>
<path fill-rule="evenodd" clip-rule="evenodd" d="M19.2016 11.9956C22.2466 11.9956 24.7378 14.4869 24.7378 17.5319V23.1863H13.6653V17.5319C13.6654 14.4869 16.1567 11.9956 19.2016 11.9956Z" fill="#01B0CF"/>
<path fill-rule="evenodd" clip-rule="evenodd" d="M22.839 23.186H13.6653V17.5317C13.6653 14.8101 15.6554 12.5313 18.2522 12.0776C20.8489 12.5313 22.839 14.8101 22.839 17.5317V23.186Z" fill="#00C3E6"/>
<path fill-rule="evenodd" clip-rule="evenodd" d="M40.8757 7.13863H36.7385C35.4983 7.13863 34.4836 6.124 34.4836 4.88379V0.746582L40.8757 7.13863Z" fill="#B3B3B3"/>
<path fill-rule="evenodd" clip-rule="evenodd" d="M11.0072 32.1749C11.6697 36.1428 11.5188 39.813 10.2139 43.0613L9.99358 46.0852H4.73693L2.67279 46.2153C1.83878 46.2678 1.92355 38.4684 2.1086 37.6534C3.59496 31.1078 3.05262 20.0535 8.02225 16.4331V29.585L13.6588 26.0087C14.5379 25.4509 15.7136 25.7138 16.2713 26.593C16.8291 27.4721 16.5663 28.6477 15.6871 29.2056L11.0072 32.1749Z" fill="#F0B16E"/>
<path fill-rule="evenodd" clip-rule="evenodd" d="M16.893 37.471C16.4791 37.471 16.1436 37.1354 16.1436 36.7215C16.1436 36.3076 16.4791 35.9721 16.893 35.9721H32.0059C32.4198 35.9721 32.7553 36.3076 32.7553 36.7215C32.7553 37.1354 32.4198 37.471 32.0059 37.471H16.893ZM27.0994 8.58486C26.8245 8.27769 26.8507 7.80574 27.1579 7.53095C27.4651 7.25615 27.937 7.2823 28.2118 7.58946L28.9593 8.42256L31.5209 6.13864C31.8298 5.86373 32.303 5.89134 32.5778 6.20009C32.8526 6.50895 32.825 6.98215 32.5163 7.25694L29.3998 10.0356L29.3984 10.034C29.0911 10.3074 28.6203 10.2808 28.3459 9.97412L27.0994 8.58486ZM27.0994 15.4398C26.8245 15.1326 26.8507 14.6607 27.1579 14.3859C27.4651 14.1111 27.937 14.1372 28.2118 14.4444L28.9593 15.2775L31.5209 12.9936C31.8298 12.7187 32.303 12.7463 32.5778 13.055C32.8526 13.3639 32.825 13.8371 32.5163 14.1119L29.3998 16.8906L29.3984 16.889C29.0911 17.1625 28.6203 17.1359 28.3459 16.8292L27.0994 15.4398ZM27.0994 22.2948C26.8245 21.9876 26.8507 21.5156 27.1579 21.2408C27.4651 20.966 27.937 20.9922 28.2118 21.2994L28.9593 22.1325L31.5209 19.8485C31.8298 19.5736 32.303 19.6012 32.5778 19.91C32.8526 20.2189 32.825 20.692 32.5163 20.9668L29.3998 23.7455L29.3984 23.7439C29.0911 24.0173 28.6203 23.9907 28.3459 23.684L27.0994 22.2948ZM16.9575 32.9743C16.5436 32.9743 16.2081 32.6387 16.2081 32.2249C16.2081 31.811 16.5436 31.4754 16.9575 31.4754H31.1532C31.5671 31.4754 31.9026 31.811 31.9026 32.2249C31.9026 32.6387 31.5671 32.9743 31.1532 32.9743H16.9575Z" fill="#00C3E6"/>
<path fill-rule="evenodd" clip-rule="evenodd" d="M37.8908 32.1749C37.2282 36.1428 37.3792 39.813 38.684 43.0613L38.9044 46.0852H44.161L46.2252 46.2153C47.0592 46.2678 46.9744 38.4684 46.7894 37.6534C45.303 31.1078 45.8454 20.0535 40.8757 16.4331V29.585L35.2391 26.0087C34.3601 25.4509 33.1845 25.7138 32.6266 26.593C32.0689 27.4721 32.3317 28.6477 33.2109 29.2056L37.8908 32.1749Z" fill="#F0B16E"/>
<path fill-rule="evenodd" clip-rule="evenodd" d="M12.55 44.771H1.52294C1.12207 44.771 0.794189 45.0989 0.794189 45.4997V47.9848C0.794189 48.3857 1.12207 48.7135 1.52294 48.7135H12.55C12.9507 48.7135 13.2787 48.3857 13.2787 47.9848V45.4997C13.2787 45.0989 12.9507 44.771 12.55 44.771ZM36.3481 44.771H47.3751C47.776 44.771 48.1038 45.0989 48.1038 45.4997V47.9848C48.1038 48.3857 47.776 48.7135 47.3751 48.7135H36.3481C35.9473 48.7135 35.6193 48.3857 35.6193 47.9848V45.4997C35.6193 45.0989 35.9472 44.771 36.3481 44.771Z" fill="#01B0CF"/>
<path fill-rule="evenodd" clip-rule="evenodd" d="M11.0023 44.771H1.52294C1.12207 44.771 0.794189 45.0989 0.794189 45.4997V47.9848C0.794189 48.3857 1.12207 48.7135 1.52294 48.7135H11.0023C11.403 48.7135 11.731 48.3857 11.731 47.9848V45.4997C11.7309 45.0989 11.403 44.771 11.0023 44.771ZM45.8274 44.771C46.2283 44.771 46.5561 45.0989 46.5561 45.4997V47.9848C46.5561 48.3857 46.2283 48.7135 45.8274 48.7135H36.3481C35.9473 48.7135 35.6193 48.3857 35.6193 47.9848V45.4997C35.6193 45.099 35.9472 44.771 36.3481 44.771H45.8274Z" fill="#00C3E6"/>
</svg>
